<svg width="155" height="155" viewBox="0 0 155 155" fill="none" xmlns="http://www.w3.org/2000/svg">
<rect width="155" height="155" rx="34" fill="#212827"/>
<path d="M28.1819 112.727H42.2728M126.818 112.727H42.2728M42.2728 112.727V126.818M42.2728 112.727V70.4545V28.1818" stroke="#6BA397" stroke-width="10"/>
<path d="M42 40L56.4427 50.9176C59.3639 53.1257 63.2583 53.5607 66.5946 52.0514L79.4134 46.2524C81.2183 45.4359 83.2251 45.1739 85.1791 45.4995L100.589 48.0679C102.289 48.3511 104.033 48.1904 105.652 47.6013L126.545 40" stroke="#94D22D" stroke-width="8"/>
<path d="M42.2727 85.5455L57.5356 74.1718C59.8523 72.4454 62.8025 71.8054 65.6263 72.4166L77.9232 75.0782C80.639 75.6661 83.477 75.0974 85.7566 73.5085L100.202 63.4409C102.127 62.099 104.463 61.477 106.801 61.6838L126.818 63.4546" stroke="#2D64D2" stroke-width="8"/>
<path d="M42.2727 97.6362L59.915 92.9288C60.756 92.7044 61.6227 92.5908 62.4931 92.5908H78.9615C81.0555 92.5908 83.0966 91.9334 84.7971 90.7115L98.4224 80.9202C101.362 78.8081 105.213 78.449 108.492 79.9813L126.818 88.5453" stroke="#D2802D" stroke-width="8"/>
</svg>
